<svg width="44" height="44" viewBox="0 0 44 44" fill="none" xmlns="http://www.w3.org/2000/svg">
<g opacity="0.5">
<path d="M7.55078 31.2168C8.03125 31.2168 8.42969 31.0644 8.89844 30.7832L20.8399 23.752C21.6719 23.2598 22.0352 22.6855 22.0352 22.0059C22.0352 21.3379 21.6719 20.7637 20.8399 20.2715L8.89844 13.2402C8.41797 12.959 8.03125 12.8066 7.55078 12.8066C6.63672 12.8066 5.86328 13.5098 5.86328 14.8105V29.2129C5.86328 30.5137 6.63672 31.2168 7.55078 31.2168ZM23.6524 31.2168C24.1328 31.2168 24.5313 31.0644 25 30.7832L36.9531 23.752C37.7735 23.2598 38.1367 22.6855 38.1367 22.0059C38.1367 21.3379 37.7735 20.7637 36.9531 20.2715L25 13.2402C24.5313 12.959 24.1328 12.8066 23.6524 12.8066C22.7383 12.8066 21.9649 13.5098 21.9649 14.8105V29.2129C21.9649 30.5137 22.7383 31.2168 23.6524 31.2168Z" fill="white"/>
</g>
</svg>
