<?xml version="1.0" encoding="UTF-8"?>
<svg xmlns="http://www.w3.org/2000/svg" xmlns:xlink="http://www.w3.org/1999/xlink" width="64px" height="64px" viewBox="0 0 64 64" version="1.1">
<g id="surface1">
<path style=" stroke:none;fill-rule:nonzero;fill:rgb(100%,100%,100%);fill-opacity:1;" d="M 32 55.25 C 44.730469 55.25 55.273438 44.691406 55.273438 31.988281 C 55.273438 19.261719 44.707031 8.726562 31.976562 8.726562 C 19.269531 8.726562 8.726562 19.261719 8.726562 31.988281 C 8.726562 44.691406 19.292969 55.25 32 55.25 Z M 32 55.25 "/>
<path style=" stroke:none;fill-rule:nonzero;fill:rgb(0%,0%,0%);fill-opacity:1;" d="M 25.359375 41.15625 C 24.195312 41.15625 23.671875 40.515625 23.671875 39.605469 L 23.671875 24.324219 C 23.671875 23.4375 24.195312 22.796875 25.359375 22.796875 L 27.664062 22.796875 C 28.851562 22.796875 29.375 23.4375 29.375 24.324219 L 29.375 39.605469 C 29.375 40.515625 28.851562 41.15625 27.664062 41.15625 Z M 36.378906 41.15625 C 35.195312 41.15625 34.667969 40.515625 34.667969 39.605469 L 34.667969 24.324219 C 34.667969 23.4375 35.195312 22.796875 36.378906 22.796875 L 38.683594 22.796875 C 39.824219 22.796875 40.351562 23.4375 40.351562 24.324219 L 40.351562 39.605469 C 40.351562 40.515625 39.824219 41.15625 38.683594 41.15625 Z M 36.378906 41.15625 "/>
</g>
</svg>
