<svg width="44" height="44" viewBox="0 0 44 44" fill="none" xmlns="http://www.w3.org/2000/svg">
<g opacity="0.5">
<path d="M36.4492 31.2168C35.9687 31.2168 35.5703 31.0644 35.1016 30.7832L23.1601 23.752C22.3281 23.2598 21.9648 22.6855 21.9648 22.0059C21.9648 21.3379 22.3281 20.7637 23.1601 20.2715L35.1016 13.2402C35.582 12.959 35.9687 12.8066 36.4492 12.8066C37.3633 12.8066 38.1367 13.5098 38.1367 14.8105V29.2129C38.1367 30.5137 37.3633 31.2168 36.4492 31.2168ZM20.3476 31.2168C19.8672 31.2168 19.4687 31.0644 19 30.7832L7.04692 23.752C6.22652 23.2598 5.86332 22.6855 5.86332 22.0059C5.86332 21.3379 6.22652 20.7637 7.04692 20.2715L19 13.2402C19.4687 12.959 19.8672 12.8066 20.3476 12.8066C21.2617 12.8066 22.0351 13.5098 22.0351 14.8105V29.2129C22.0351 30.5137 21.2617 31.2168 20.3476 31.2168Z" fill="white"/>
</g>
</svg>
